<svg width="54.2" height="71.6" viewBox="0 0 54.2 71.6" xmlns="http://www.w3.org/2000/svg"><g id="svgGroup" stroke-linecap="round" fill-rule="evenodd" font-size="9pt" stroke="#ffffff" stroke-width="0.25mm" fill="#ffffff" style="stroke:#ffffff;stroke-width:0.25mm;fill:#ffffff"><path d="M 0 70.6 L 0 1 Q 4.7 0.5 9.2 0.25 A 151.31 151.31 0 0 1 13.386 0.08 Q 16.238 0 19.5 0 A 48.608 48.608 0 0 1 26.844 0.527 Q 30.778 1.129 34.11 2.418 A 29.198 29.198 0 0 1 35.05 2.8 A 30.978 30.978 0 0 1 42.339 7.121 A 27.223 27.223 0 0 1 45.85 10.5 Q 50.1 15.4 52.15 21.85 A 44.256 44.256 0 0 1 54.122 32.846 A 51.506 51.506 0 0 1 54.2 35.7 A 45.309 45.309 0 0 1 52.719 47.398 A 41.802 41.802 0 0 1 52.1 49.5 Q 50 56 45.65 60.95 Q 41.3 65.9 34.55 68.75 Q 28.275 71.4 19.709 71.586 A 60.192 60.192 0 0 1 18.4 71.6 A 186.98 186.98 0 0 1 14.329 71.558 Q 12.315 71.514 10.522 71.425 A 101.5 101.5 0 0 1 8.45 71.3 Q 4.2 71 0 70.6 Z M 9.5 8.7 L 9.5 62.8 Q 11.6 63.1 13.9 63.2 A 107.265 107.265 0 0 0 17.463 63.294 A 121.297 121.297 0 0 0 18.7 63.3 A 37.906 37.906 0 0 0 24.864 62.829 Q 29.793 62.015 33.4 59.8 Q 39.1 56.3 41.8 50.05 A 32.292 32.292 0 0 0 44.054 41.976 A 42.502 42.502 0 0 0 44.5 35.7 Q 44.5 28.5 41.8 22.2 Q 39.1 15.9 33.5 12.05 A 20.895 20.895 0 0 0 26.448 8.991 Q 23.607 8.312 20.296 8.216 A 38.008 38.008 0 0 0 19.2 8.2 Q 16.3 8.2 13.9 8.35 Q 11.5 8.5 9.5 8.7 Z" vector-effect="non-scaling-stroke"/></g></svg>