<svg width="55.957" height="73.828" viewBox="0 0 55.957 73.828" xmlns="http://www.w3.org/2000/svg"><g id="svgGroup" stroke-linecap="round" fill-rule="evenodd" font-size="9pt" stroke="#000" stroke-width="0.25mm" fill="#000" style="stroke:#000;stroke-width:0.25mm;fill:#000"><path d="M 6.185 73.193 A 11.482 11.482 0 0 0 8.105 73.828 A 237.531 237.531 0 0 1 21.533 68.115 A 148.086 148.086 0 0 0 34.766 62.207 Q 41.113 58.984 46.484 54.785 Q 51.855 50.586 55.371 44.434 L 55.371 43.066 A 4.244 4.244 0 0 1 55.393 42.63 A 3.17 3.17 0 0 1 55.469 42.188 L 55.664 41.406 A 7.114 7.114 0 0 1 55.674 41.367 Q 55.746 41.087 55.865 40.71 A 21.591 21.591 0 0 1 55.957 40.43 A 31.552 31.552 0 0 0 55.292 35.582 A 23.499 23.499 0 0 0 53.125 29.59 Q 50.684 25 47.021 21.436 A 57.423 57.423 0 0 0 38.916 14.893 Q 34.473 11.914 30.273 8.887 A 40.269 40.269 0 0 1 29.245 8.615 A 45.161 45.161 0 0 1 24.707 7.08 Q 21.875 5.957 18.945 4.736 Q 16.016 3.516 12.988 2.246 A 69.519 69.519 0 0 0 6.836 0 A 8.748 8.748 0 0 0 6.557 0.529 A 9.488 9.488 0 0 0 5.762 3.027 A 13.139 13.139 0 0 1 5.443 4.392 A 16.001 16.001 0 0 1 4.687 6.445 Q 5.273 8.691 5.908 10.4 Q 6.543 12.109 6.543 13.867 L 4.98 13.867 A 1.358 1.358 0 0 0 4.963 13.867 Q 4.259 13.877 4.371 14.619 A 1.857 1.857 0 0 0 4.395 14.746 Q 4.547 15.051 4.461 15.446 A 1.768 1.768 0 0 1 4.395 15.674 Q 4.199 16.211 4.102 17.285 A 58.094 58.094 0 0 1 5.019 21.154 A 70.712 70.712 0 0 1 6.055 28.125 A 49.91 49.91 0 0 1 6.306 33.094 A 46.404 46.404 0 0 1 5.859 39.551 A 1.541 1.541 0 0 0 5.856 39.552 Q 5.45 39.757 5.045 40.241 A 5.535 5.535 0 0 0 4.688 40.723 Q 4.395 43.848 3.516 46.777 A 147.196 147.196 0 0 1 3.064 48.254 A 165.398 165.398 0 0 1 1.562 52.832 Q 1.618 53.717 1.438 54.383 A 2.712 2.712 0 0 1 1.025 55.273 A 6.349 6.349 0 0 0 0.42 56.318 A 8.659 8.659 0 0 0 0 57.422 Q 0.293 60.254 0.537 62.891 A 24.525 24.525 0 0 0 0.789 64.806 A 19.98 19.98 0 0 0 1.514 67.725 Q 2.246 69.922 3.76 71.533 A 6.336 6.336 0 0 0 4.336 72.074 Q 5.126 72.728 6.185 73.193 Z M 16.809 18.593 A 1.152 1.152 0 0 0 16.406 18.848 A 82.777 82.777 0 0 1 17.617 24.022 A 66.95 66.95 0 0 1 18.164 27.148 A 57.448 57.448 0 0 1 18.799 34.961 A 56.953 56.953 0 0 1 18.803 35.673 A 61.701 61.701 0 0 1 18.359 42.969 Q 17.871 47.07 16.992 51.855 A 8.827 8.827 0 0 0 18.18 51.686 A 6.602 6.602 0 0 0 19.238 51.367 A 33.272 33.272 0 0 0 20.731 50.726 A 37.323 37.323 0 0 0 21.24 50.488 Q 22.266 50 23.389 49.609 Q 24.512 49.219 25.977 49.121 A 3.503 3.503 0 0 1 26.461 48.387 A 2.903 2.903 0 0 1 27.002 47.9 A 8.574 8.574 0 0 0 27.789 47.288 A 7.263 7.263 0 0 0 28.125 46.973 Q 30.566 45.996 33.008 44.922 A 30.173 30.173 0 0 0 36.684 43.003 A 26.916 26.916 0 0 0 37.5 42.48 A 21.449 21.449 0 0 0 41.211 39.355 A 14.148 14.148 0 0 0 43.447 36.192 A 16.737 16.737 0 0 0 43.945 35.156 A 9.563 9.563 0 0 0 42.678 33.314 A 8.484 8.484 0 0 0 42.041 32.666 Q 40.918 31.641 39.697 30.615 A 36.65 36.65 0 0 1 37.354 28.467 Q 36.23 27.344 35.547 25.879 A 8.793 8.793 0 0 1 34.082 25.574 A 6.812 6.812 0 0 1 32.813 25.049 A 70.114 70.114 0 0 1 30.836 23.938 A 63.466 63.466 0 0 1 30.566 23.779 A 29.28 29.28 0 0 0 28.873 22.855 A 33.107 33.107 0 0 0 28.271 22.559 A 6.659 6.659 0 0 0 26.805 22.064 A 9.152 9.152 0 0 0 25.391 21.875 A 27.885 27.885 0 0 0 23.408 20.901 Q 22.453 20.481 21.579 20.199 A 14.472 14.472 0 0 0 20.801 19.971 A 10.891 10.891 0 0 1 19.508 19.55 Q 18.874 19.296 18.374 18.982 A 4.93 4.93 0 0 1 17.676 18.457 Q 17.157 18.457 16.809 18.593 Z" vector-effect="non-scaling-stroke"/></g></svg>